<svg xmlns="http://www.w3.org/2000/svg" width="157" height="141" viewBox="0 0 157 141" version="1.1"><path d="M 118.500 17.618 C 98.664 25.033, 80.341 31.844, 41.159 46.367 C 20.406 54.059, 18 55.225, 18 57.594 C 18 58.609, 37.118 73.805, 46.451 80.208 C 47.048 80.618, 42.106 86.352, 34.742 93.794 C 27.734 100.877, 22 107.302, 22 108.073 C 22 110.045, 44.730 131.995, 46.799 132.021 C 47.734 132.033, 54.033 126.295, 60.796 119.271 L 73.092 106.500 76.531 110.500 C 78.423 112.700, 83.239 118.869, 87.235 124.209 C 94.732 134.228, 97.241 136.188, 99.577 133.852 C 100.714 132.714, 110.475 105.919, 117.008 86 C 118 82.975, 122.271 70.600, 126.499 58.500 C 142.855 11.693, 142.395 13.181, 141.023 11.528 C 140.326 10.688, 139.473 10.032, 139.128 10.071 C 138.782 10.110, 129.500 13.507, 118.500 17.618 M 102 31.068 C 89.075 35.946, 68.600 43.622, 56.500 48.125 C 33.811 56.570, 32 57.407, 32 59.451 C 32 60.114, 37.916 65.050, 45.146 70.419 L 58.292 80.181 45.038 93.462 C 34.513 104.009, 31.913 107.150, 32.410 108.717 C 33.344 111.659, 44.514 122, 46.757 122 C 47.958 122, 53.415 117.003, 60.995 108.965 C 67.756 101.795, 73.656 96.058, 74.107 96.215 C 74.839 96.470, 81.436 104.794, 90.350 116.711 C 93.331 120.696, 96.214 122.081, 97.431 120.112 C 99.129 117.364, 130.946 24.302, 130.545 23.257 C 129.685 21.015, 125.872 22.058, 102 31.068 M 102.500 36.529 C 50.731 55.786, 41 59.516, 41 60.104 C 41 60.451, 46.063 64.480, 52.250 69.056 C 58.438 73.633, 63.808 77.834, 64.185 78.393 C 65.224 79.933, 64.486 80.838, 50.759 94.855 L 38.018 107.866 42.259 111.911 L 46.500 115.955 60.056 102.435 C 69.063 93.451, 74.097 89.119, 75.056 89.526 C 75.850 89.862, 80.491 95.303, 85.369 101.617 C 90.247 107.930, 94.402 112.931, 94.603 112.730 C 94.995 112.338, 106.701 79.083, 110.524 67.500 C 111.794 63.650, 115.319 53.413, 118.356 44.750 C 121.393 36.087, 123.568 29.020, 123.189 29.045 C 122.810 29.070, 113.500 32.438, 102.500 36.529" stroke="none" fill="#e4d4ac" fill-rule="evenodd"/></svg>