<?xml version="1.0" encoding="UTF-8"?>
<svg version="1.1" xmlns="http://www.w3.org/2000/svg" width="77" height="53">
<path d="M0 0 C25.41 0 50.82 0 77 0 C77 17.49 77 34.98 77 53 C51.59 53 26.18 53 0 53 C0 35.51 0 18.02 0 0 Z " fill="#EEEDE6" transform="translate(0,0)"/>
<path d="M0 0 C1.76923828 0.01353516 1.76923828 0.01353516 3.57421875 0.02734375 C4.47785156 0.03894531 5.38148437 0.05054688 6.3125 0.0625 C8.43196483 4.99144376 10.54984601 9.92106374 12.66625977 14.85131836 C13.38652714 16.52858888 14.10722761 18.20567349 14.82836914 19.88256836 C15.86458312 22.29231856 16.89923995 24.70273211 17.93359375 27.11328125 C18.25653915 27.86337967 18.57948456 28.61347809 18.91221619 29.38630676 C20.14280399 32.25747191 21.32416933 35.09750798 22.3125 38.0625 C22.68536133 37.19560547 23.05822266 36.32871094 23.44238281 35.43554688 C24.84205515 32.18441473 26.24382491 28.9342032 27.64697266 25.68457031 C28.25099086 24.28453666 28.85419873 22.8841531 29.45654297 21.48339844 C32.56697185 14.25152232 35.67483562 7.04969693 39.3125 0.0625 C40.9625 0.0625 42.6125 0.0625 44.3125 0.0625 C38.07668917 15.10504336 31.76404622 30.11114782 25.3125 45.0625 C23.6625 45.0625 22.0125 45.0625 20.3125 45.0625 C15.98431383 36.66409902 12.09263904 28.14825254 8.4375 19.4375 C7.69113281 17.68373047 7.69113281 17.68373047 6.9296875 15.89453125 C3.3125 7.31861693 3.3125 7.31861693 3.3125 5.0625 C1.24764776 5.29226394 -0.81441118 5.54720777 -2.875 5.8125 C-4.59783203 6.02132813 -4.59783203 6.02132813 -6.35546875 6.234375 C-10.10171313 7.16544629 -11.93502499 8.39358227 -14.6875 11.0625 C-17.69273406 16.3475668 -18.58773369 21.10868176 -17.6875 27.0625 C-16.28519698 31.78692564 -14.71739914 34.31287289 -10.6875 37.24609375 C-6.05719212 39.73673425 -1.41121266 39.73075293 3.75 39.8125 C4.67232422 39.84214844 5.59464844 39.87179688 6.54492188 39.90234375 C8.80086601 39.97247673 11.05581119 40.0254475 13.3125 40.0625 C13.9725 41.7125 14.6325 43.3625 15.3125 45.0625 C11.81278801 45.1798794 8.31359045 45.25013961 4.8125 45.3125 C3.33910156 45.36277344 3.33910156 45.36277344 1.8359375 45.4140625 C-6.15135741 45.52055977 -11.21220505 43.82693916 -17.4375 38.875 C-22.07887081 33.07328649 -24.49808533 27.10996454 -24.125 19.61328125 C-23.13386597 13.8346159 -20.93259209 9.00090701 -16.45703125 5.13671875 C-10.85612446 1.30836648 -6.83546187 -0.06767784 0 0 Z " fill="#3379B4" transform="translate(27.6875,3.9375)"/>
<path d="M0 0 C7.59 0.33 15.18 0.66 23 1 C23.33 2.65 23.66 4.3 24 6 C21.12340174 6.1356886 18.25326537 6.23440753 15.375 6.3125 C14.56675781 6.35439453 13.75851563 6.39628906 12.92578125 6.43945312 C8.59220536 6.52753394 5.84531902 6.34586759 2.4140625 3.54296875 C0 1 0 1 0 0 Z " fill="#3E80B7" transform="translate(15,35)"/>
<path d="M0 0 C1.65 0 3.3 0 5 0 C3.36041242 5.23272633 1.61047965 10.15196636 -1 15 C-1.66 15 -2.32 15 -3 15 C-4.83508773 9.03596489 -2.71739052 5.24817912 0 0 Z " fill="#3479B4" transform="translate(58,4)"/>
</svg>
