<svg xmlns="http://www.w3.org/2000/svg" width="240" height="293" viewBox="0 0 240 293" version="1.1"><path d="M 69.500 3.392 C 58.094 6.981, 49.633 15.362, 46.171 26.500 C 45.487 28.700, 43.614 36.575, 42.007 44 C 40.401 51.425, 36.569 68.525, 33.491 82 C 30.413 95.475, 26.138 114.375, 23.992 124 C 21.846 133.625, 17.573 152.525, 14.498 166 C -0.010 229.563, -0.200 230.969, 4.336 241.225 C 9.319 252.493, 17.675 258.978, 31.287 262.142 C 41.425 264.498, 72.430 271.532, 101 277.958 C 112.825 280.617, 128.800 284.281, 136.500 286.100 C 155.476 290.583, 166.087 290.733, 174 286.630 C 181.101 282.949, 188.197 275.429, 190.856 268.768 C 192.013 265.870, 194.070 258.325, 195.428 252 C 196.785 245.675, 200.415 229.475, 203.494 216 C 206.573 202.525, 210.401 185.650, 212.002 178.500 C 213.603 171.350, 217.435 154.475, 220.519 141 C 223.602 127.525, 227.865 108.625, 229.993 99 C 232.121 89.375, 234.614 78.350, 235.532 74.500 C 238.685 61.284, 235.515 48.823, 226.693 39.758 C 221.036 33.944, 215.485 31.545, 199.244 27.895 C 191.685 26.196, 176.950 22.871, 166.500 20.507 C 156.050 18.142, 138.275 14.159, 127 11.656 C 115.725 9.153, 101.775 5.957, 96 4.554 C 84.637 1.793, 75.812 1.406, 69.500 3.392 M 74.086 15.727 C 70.546 16.394, 64.501 20.475, 62.282 23.695 C 59.433 27.830, 58.420 31.037, 55.078 46.500 C 53.413 54.200, 49.545 71.525, 46.481 85 C 43.417 98.475, 39.151 117.375, 37 127 C 34.849 136.625, 30.573 155.525, 27.498 169 C 18.127 210.056, 15 225.047, 15 228.911 C 15 233.990, 19.245 242.012, 23.429 244.842 C 26.939 247.216, 36.243 249.695, 69 256.987 C 92.256 262.164, 123.394 269.181, 139.793 272.940 C 157.919 277.096, 161.423 277.349, 166.953 274.903 C 169.440 273.802, 172.536 271.912, 173.833 270.701 C 178.646 266.207, 178.484 266.772, 191.008 211 C 197.207 183.398, 203.582 155.194, 208.526 133.500 C 211.032 122.500, 214.661 106.300, 216.590 97.500 C 218.518 88.700, 220.776 78.859, 221.606 75.631 C 223.502 68.265, 223.676 59.140, 221.983 55.944 C 219.340 50.956, 215.798 47.132, 212.270 45.458 C 210.274 44.511, 201.634 42.173, 193.070 40.263 C 184.507 38.353, 168.725 34.805, 158 32.379 C 147.275 29.952, 129.500 25.972, 118.500 23.534 C 107.500 21.096, 94.900 18.186, 90.500 17.066 C 82.722 15.087, 79.065 14.789, 74.086 15.727 M 75.208 22.711 C 73.948 22.953, 71.473 24.596, 69.708 26.363 C 66.255 29.822, 66.618 28.507, 55.991 76 C 52.323 92.395, 49.833 103.390, 38.440 153.500 C 35.939 164.500, 32.148 181.375, 30.014 191 C 27.881 200.625, 25.163 212.543, 23.975 217.483 C 20.960 230.020, 22.418 236.096, 29.295 239.653 C 32.038 241.071, 55.094 246.541, 96.500 255.597 C 105.300 257.521, 114.975 259.728, 118 260.500 C 130.476 263.685, 156.741 268.997, 160 268.995 C 163.881 268.992, 169.335 266.111, 170.863 263.255 C 172.167 260.820, 175.265 248.587, 179.485 229.209 C 181.366 220.569, 185.422 202.475, 188.498 189 C 191.573 175.525, 195.852 156.625, 198.005 147 C 204.592 117.562, 211.751 85.963, 213.930 76.711 C 215.069 71.877, 216 65.862, 216 63.344 C 216 59.385, 215.492 58.257, 212.250 55.017 C 209.585 52.355, 207.053 50.948, 203.500 50.158 C 200.750 49.547, 187.475 46.538, 174 43.471 C 160.525 40.404, 141.625 36.138, 132 33.991 C 122.375 31.844, 106.481 28.268, 96.681 26.044 C 86.880 23.820, 78.555 22.061, 78.181 22.136 C 77.806 22.211, 76.469 22.470, 75.208 22.711 M 79.220 35.250 C 77.930 36.824, 76.940 40.598, 72.593 60.500 C 70.672 69.300, 67.511 83.475, 65.571 92 C 63.630 100.525, 62.033 108.703, 62.021 110.172 C 61.995 113.433, 62.581 113.648, 84.500 118.415 C 93.300 120.329, 109.500 123.969, 120.500 126.503 C 181.013 140.443, 184.326 141.094, 186.005 139.375 C 187.167 138.185, 202.884 68.524, 202.960 64.229 C 203.013 61.224, 201.580 60.686, 182.500 56.553 C 173.700 54.647, 156.375 50.779, 144 47.958 C 99.744 37.870, 82.483 34.026, 81.372 34.013 C 80.752 34.006, 79.784 34.563, 79.220 35.250 M 80.745 57.750 C 74.938 82.512, 69.680 107.023, 70.108 107.334 C 70.550 107.654, 86.122 111.252, 112 117.014 C 121.625 119.157, 140.525 123.403, 154 126.449 C 167.475 129.495, 178.993 131.990, 179.596 131.994 C 180.730 132, 181.390 129.477, 187.959 100 C 190.104 90.375, 192.650 79.247, 193.618 75.272 C 194.585 71.296, 195.138 67.805, 194.847 67.513 C 193.854 66.521, 183.341 64.040, 125 51.034 C 115.375 48.888, 102.666 45.978, 96.758 44.566 C 90.850 43.155, 85.662 42, 85.228 42 C 84.794 42, 82.777 49.087, 80.745 57.750 M 103.500 137.798 C 98.468 138.297, 89.903 141.020, 84.052 143.980 C 76.469 147.817, 69.950 153.801, 64.646 161.792 C 57.964 171.858, 56.492 177.253, 56.541 191.500 C 56.578 202.371, 56.850 204.142, 59.428 210.326 C 67.919 230.693, 86.947 244, 107.581 244 C 130.747 244, 149.401 231.766, 158.232 210.781 C 161.844 202.198, 163.021 189.232, 161.049 179.737 C 156.957 160.030, 140.225 143.055, 121 139.107 C 114.903 137.855, 108.074 137.344, 103.500 137.798 M 99 145.654 C 97.625 145.931, 93.323 147.673, 89.441 149.525 C 64.318 161.507, 55.677 191.915, 70.552 216 C 79.759 230.907, 99.656 239.460, 117.209 236.056 C 136.475 232.321, 150.711 217.809, 154.078 198.473 C 157.642 178.007, 147.360 158.560, 128.060 149.262 C 121.340 146.025, 119.693 145.652, 111.060 145.414 C 105.802 145.269, 100.375 145.377, 99 145.654 M 100.500 171.832 C 83.223 180.106, 84.385 205.176, 102.293 210.494 C 109.102 212.516, 112.185 212.393, 117.517 209.887 C 130.274 203.890, 133.871 187.641, 124.805 176.963 C 119.364 170.555, 108.122 168.182, 100.500 171.832 M 103.396 178.429 C 94.776 182.182, 92.947 193.743, 99.918 200.421 C 103.339 203.699, 110.325 204.937, 114.842 203.066 C 124.963 198.873, 124.822 183.465, 114.619 178.623 C 110.510 176.674, 107.547 176.623, 103.396 178.429" stroke="none" fill="#e4d4ac" fill-rule="evenodd"/></svg>