<svg xmlns="http://www.w3.org/2000/svg" width="293" height="249" viewBox="0 0 293 249" version="1.1"><path d="M 118.096 1.265 C 116.774 1.944, 114.873 3.625, 113.872 5 C 112.669 6.652, 108.198 25.459, 100.695 60.427 L 89.340 113.355 85.420 115.164 C 83.264 116.159, 65.545 123.958, 46.044 132.497 C 25.007 141.708, 9.467 149.094, 7.834 150.659 C 3.992 154.340, 1 161.185, 1 166.293 C 1 172.224, 5.263 180.493, 9.873 183.502 C 11.868 184.804, 18.225 187.739, 24 190.025 C 29.775 192.311, 36.319 195.009, 38.543 196.021 C 40.766 197.033, 45.613 199.001, 49.314 200.394 C 55.306 202.649, 58.616 204.020, 65.500 207.098 C 66.600 207.590, 90.225 217.249, 118 228.563 C 156.491 244.241, 169.221 249.021, 171.530 248.665 C 173.196 248.408, 192.996 237.077, 215.530 223.485 C 264.229 194.111, 263.522 194.573, 264.918 191.177 C 267.179 185.674, 292.069 67.464, 291.472 65.061 C 291.139 63.720, 289.993 61.395, 288.925 59.895 C 287.026 57.228, 284.756 56.199, 266 49.500 C 262.150 48.125, 255.850 45.875, 252 44.500 C 248.150 43.125, 241.850 40.875, 238 39.500 C 234.150 38.125, 227.963 35.914, 224.250 34.586 C 220.537 33.258, 206.475 28.260, 193 23.478 C 179.525 18.697, 163.550 13.003, 157.500 10.825 C 125.608 -0.654, 123.042 -1.277, 118.096 1.265 M 130.073 15.838 C 126.504 16.349, 123.343 18.732, 122.166 21.799 C 121.595 23.284, 116.573 45.875, 111.004 72 C 105.436 98.125, 100.671 120.224, 100.417 121.110 C 100.162 121.995, 96.927 123.986, 93.227 125.534 C 89.527 127.081, 84.250 129.337, 81.500 130.547 C 78.750 131.756, 72.900 134.330, 68.500 136.267 C 64.100 138.204, 51.500 143.705, 40.500 148.491 C 29.500 153.278, 19.383 158.279, 18.017 159.603 C 13.253 164.224, 15.694 173.166, 22.483 175.960 C 24.142 176.643, 26.850 177.787, 28.500 178.502 C 30.150 179.217, 59.400 191.134, 93.500 204.983 C 127.600 218.833, 156.850 230.787, 158.500 231.547 C 160.150 232.308, 163.525 233.388, 166 233.947 C 170.048 234.862, 171.052 234.686, 176 232.193 C 180.084 230.135, 252.747 186.590, 253.653 185.657 C 254.305 184.986, 277.143 76.764, 277.168 74.227 C 277.186 72.427, 276.541 69.948, 275.735 68.718 C 273.692 65.600, 273.753 65.627, 247.750 56.438 C 243.762 55.029, 237.575 52.833, 234 51.557 C 230.425 50.282, 223.450 47.794, 218.500 46.030 C 213.550 44.266, 206.463 41.737, 202.750 40.411 C 199.037 39.085, 192.850 36.875, 189 35.500 C 185.150 34.125, 178.850 31.875, 175 30.500 C 137.780 17.207, 132.516 15.489, 130.073 15.838 M 128.547 22.923 C 127.370 24.829, 106.932 122.081, 107.512 123.019 C 107.845 123.559, 108.773 124, 109.573 124 C 110.373 124, 111.809 124.442, 112.764 124.982 C 114.627 126.035, 172.739 149, 173.541 149 C 173.806 149, 175.929 149.843, 178.261 150.873 C 180.592 151.903, 186.775 154.428, 192 156.483 C 201.781 160.330, 205.042 161.642, 208.500 163.125 C 217.155 166.836, 246.387 178, 247.450 178 C 248.183 178, 249.026 176.988, 249.322 175.750 C 253.451 158.508, 271.047 73.565, 270.685 72.623 C 270.416 71.921, 268.014 70.559, 265.348 69.596 C 262.682 68.633, 259.600 67.467, 258.500 67.005 C 257.400 66.543, 255.150 65.715, 253.500 65.165 C 251.850 64.615, 247.350 63.031, 243.500 61.644 C 221.922 53.872, 212.880 50.662, 207.500 48.863 C 204.200 47.760, 200.600 46.474, 199.500 46.006 C 198.400 45.538, 195.250 44.392, 192.500 43.458 C 186.463 41.409, 176.398 37.864, 167.250 34.567 C 128.834 20.719, 129.741 20.992, 128.547 22.923 M 133.493 33.250 C 132.384 36.368, 116 114.190, 116 116.339 C 116 118.150, 116.816 119.064, 119.250 119.980 C 121.037 120.652, 123.400 121.554, 124.500 121.984 C 127.035 122.976, 139.850 127.945, 142.500 128.963 C 143.600 129.386, 145.625 130.199, 147 130.769 C 148.375 131.339, 152.650 133.027, 156.500 134.520 C 160.350 136.012, 164.625 137.691, 166 138.251 C 167.375 138.810, 169.400 139.614, 170.500 140.037 C 171.600 140.459, 175.650 142.027, 179.500 143.520 C 183.350 145.012, 187.400 146.582, 188.500 147.007 C 192.615 148.599, 209.575 155.250, 211.500 156.026 C 212.600 156.470, 217.775 158.488, 223 160.511 C 228.225 162.534, 233.281 164.597, 234.236 165.095 C 236.467 166.258, 240.719 166.263, 241.436 165.104 C 242.570 163.269, 260.045 80.408, 259.778 78.132 C 259.558 76.253, 258.362 75.356, 254 73.796 C 250.975 72.714, 245.575 70.783, 242 69.505 C 238.425 68.227, 230.325 65.300, 224 63 C 217.675 60.700, 209.463 57.735, 205.750 56.409 C 202.037 55.084, 195.850 52.875, 192 51.500 C 188.150 50.125, 181.850 47.875, 178 46.500 C 161.113 40.469, 156.946 38.967, 147.727 35.585 C 137.301 31.761, 134.203 31.253, 133.493 33.250 M 130.678 75.815 C 126.455 95.514, 123 112.277, 123 113.067 C 123 114.037, 141.074 121.563, 178.750 136.280 C 209.413 148.258, 235.063 158.044, 235.750 158.029 C 236.438 158.013, 237.006 157.662, 237.013 157.250 C 237.020 156.838, 240.620 139.852, 245.013 119.505 C 249.406 99.158, 253 82.006, 253 81.389 C 253 80.773, 250.188 79.264, 246.750 78.037 C 241.355 76.110, 221.067 68.820, 197.750 60.429 C 194.037 59.093, 187.850 56.875, 184 55.500 C 173.742 51.836, 164.911 48.658, 152.255 44.073 C 146.070 41.833, 140.412 40, 139.682 40 C 138.747 40, 136.088 50.575, 130.678 75.815 M 98.500 130.048 C 92.873 132.754, 81.029 138, 80.548 138 C 80.209 138, 69.315 142.838, 62.500 146.015 C 61.400 146.528, 52.175 150.533, 42 154.915 C 31.825 159.297, 23.052 163.584, 22.505 164.441 C 21.838 165.486, 21.859 166.553, 22.569 167.678 C 23.151 168.601, 42.274 176.925, 65.064 186.176 C 87.854 195.427, 107.400 203.413, 108.500 203.922 C 109.600 204.431, 115.225 206.727, 121 209.025 C 126.775 211.322, 133.075 213.877, 135 214.703 C 136.925 215.528, 139.400 216.562, 140.500 217 C 141.600 217.438, 144.075 218.476, 146 219.306 C 158.377 224.645, 168.695 228.042, 170.876 227.495 C 172.203 227.162, 175.362 225.545, 177.895 223.901 C 180.428 222.258, 195.738 212.945, 211.918 203.207 C 228.098 193.468, 241.488 185.043, 241.673 184.484 C 241.859 183.926, 233.121 179.962, 222.255 175.677 C 199.315 166.628, 199.283 166.615, 196 165.156 C 194.625 164.545, 184.275 160.413, 173 155.974 C 161.725 151.535, 151.375 147.415, 150 146.818 C 144.640 144.491, 102.965 127.970, 102.687 128.062 C 102.584 128.096, 100.700 128.990, 98.500 130.048 M 91 142.908 C 47.521 161.754, 49.517 160.780, 49.200 163.292 C 48.916 165.531, 50.929 166.492, 84.200 179.994 C 103.615 187.873, 121.525 195.192, 124 196.259 C 126.475 197.326, 129.400 198.544, 130.500 198.966 C 131.600 199.387, 133.625 200.230, 135 200.839 C 136.375 201.447, 139.975 202.892, 143 204.050 C 148.598 206.193, 150.903 207.163, 159.140 210.837 C 167.869 214.731, 166.754 215.064, 190.500 201.471 C 218.332 185.540, 217.186 186.311, 216.811 183.742 C 216.581 182.164, 214.942 181.015, 210.500 179.314 C 207.200 178.052, 203.600 176.624, 202.500 176.143 C 197.073 173.768, 193.935 172.502, 173.500 164.444 C 161.400 159.673, 150.150 155.191, 148.500 154.484 C 143.969 152.543, 104.982 136.996, 104.724 137.028 C 104.601 137.043, 98.425 139.689, 91 142.908 M 97.250 147.125 C 93.263 148.812, 90 150.505, 90 150.886 C 90 151.267, 93.974 153.262, 98.831 155.319 L 107.662 159.058 114.956 155.454 C 118.967 153.471, 121.856 151.500, 121.375 151.074 C 120.682 150.459, 110.922 146.367, 105.500 144.417 C 104.950 144.219, 101.237 145.438, 97.250 147.125 M 70.250 158.745 C 65.713 160.690, 62 162.592, 62 162.972 C 62 163.836, 67.160 166.314, 77.642 170.483 L 81.784 172.131 89.816 168.092 C 94.234 165.871, 98.097 163.651, 98.401 163.160 C 98.998 162.194, 82.375 154.932, 79.962 155.105 C 79.158 155.162, 74.787 156.800, 70.250 158.745 M 123.240 158.279 C 119.796 160.016, 117.113 161.838, 117.276 162.327 C 117.439 162.817, 121.256 164.703, 125.758 166.520 L 133.945 169.822 140.972 166.169 C 144.838 164.160, 148 162.230, 148 161.879 C 148 161.529, 146.537 160.693, 144.750 160.020 C 139.933 158.209, 136.712 156.874, 134.764 155.883 C 132.001 154.478, 129.913 154.912, 123.240 158.279 M 149.754 168.848 C 146.044 170.857, 143.007 172.792, 143.004 173.150 C 143 173.852, 159.557 181, 161.187 181 C 162.745 181, 175 173.919, 175 173.019 C 175 172.355, 157.537 164.778, 156.743 165.098 C 156.609 165.152, 153.464 166.839, 149.754 168.848 M 99.754 170.286 C 95.493 172.604, 92.067 174.950, 92.141 175.500 C 92.214 176.050, 95.924 178.001, 100.387 179.835 L 108.500 183.170 116.756 178.854 C 121.297 176.480, 124.881 174.143, 124.720 173.660 C 124.512 173.035, 108.051 165.723, 107.557 166.036 C 107.526 166.056, 104.014 167.968, 99.754 170.286 M 176.692 180.180 C 168.922 184.802, 168.935 184.843, 179.500 189.030 C 182.800 190.338, 186.605 191.974, 187.955 192.667 C 190.151 193.793, 191.151 193.514, 197.432 190.031 C 201.295 187.888, 204.590 185.729, 204.756 185.233 C 204.921 184.736, 203.132 183.519, 200.778 182.528 C 198.425 181.537, 194.637 179.909, 192.360 178.910 C 185.147 175.745, 183.990 175.839, 176.692 180.180 M 128.500 180.112 C 125.200 181.822, 121.412 183.906, 120.081 184.744 L 117.662 186.267 120.161 187.576 C 121.535 188.296, 126.122 190.261, 130.354 191.942 L 138.048 194.998 145.492 190.749 C 149.586 188.412, 152.950 186.140, 152.968 185.699 C 152.986 185.258, 151.313 184.200, 149.250 183.347 C 147.188 182.494, 143.124 180.717, 140.220 179.398 C 137.317 178.079, 134.842 177.001, 134.720 177.002 C 134.599 177.003, 131.800 178.403, 128.500 180.112 M 154.500 192.973 C 150.650 195.135, 147.500 197.406, 147.500 198.019 C 147.500 198.948, 165.082 206.973, 167.162 206.993 C 168.840 207.010, 182.053 198.659, 181.756 197.769 C 181.459 196.876, 163.724 188.969, 162.134 189.021 C 161.785 189.032, 158.350 190.811, 154.500 192.973" stroke="none" fill="#e4d4ac" fill-rule="evenodd"/></svg>