<svg xmlns="http://www.w3.org/2000/svg" width="163" height="228" viewBox="0 0 163 228" version="1.1"><path d="M 29.320 3.461 C 23.703 5.905, 11.312 14.798, 8.079 18.708 C 4.623 22.887, 1.982 30.409, 2.033 35.932 C 2.051 37.894, 2.863 41.750, 3.839 44.500 C 5.511 49.213, 88.813 179.805, 93.372 184.860 C 96.541 188.374, 151.138 226.301, 153.748 226.801 C 156.446 227.319, 160.612 224.797, 161.457 222.136 C 162.313 219.439, 150.288 153.410, 148.051 148.522 C 145.188 142.268, 62.476 13.947, 58.719 9.931 C 53.563 4.420, 47.631 1.993, 39.434 2.039 C 35.620 2.061, 31.069 2.701, 29.320 3.461 M 32.293 13.418 C 26.384 16.089, 16.892 23.130, 14.996 26.247 C 12.469 30.402, 11.597 36.250, 12.912 40.229 C 13.506 42.028, 33.485 73.861, 57.309 110.969 L 100.626 178.438 123.225 194.222 C 145.599 209.848, 149 211.517, 149 206.867 C 149 205.811, 146.938 193.372, 144.417 179.224 L 139.834 153.500 102.979 96 C 57.553 25.126, 52.196 17.082, 48.791 14.626 C 45.294 12.102, 36.609 11.466, 32.293 13.418 M 27.806 22.864 C 19.655 28.185, 17.361 31.672, 18.281 37.342 C 18.990 41.714, 29.756 58.246, 31.322 57.369 C 37.249 54.052, 59 39.532, 59 38.893 C 59 37.212, 48.030 21.134, 45.833 19.596 C 41.461 16.533, 35.982 17.526, 27.806 22.864 M 48.296 53.287 C 40.484 58.354, 34.086 62.950, 34.078 63.500 C 34.070 64.050, 34.612 65.214, 35.282 66.087 C 36.352 67.481, 38.221 66.569, 50.678 58.576 C 58.475 53.572, 65.082 49.251, 65.359 48.974 C 65.636 48.697, 65.106 47.481, 64.182 46.272 L 62.500 44.074 48.296 53.287 M 54 63.088 C 46.575 67.993, 40.550 72.607, 40.612 73.340 C 40.707 74.485, 100.885 168.934, 103.085 171.391 C 103.529 171.887, 110.346 168.163, 118.456 162.994 L 133.029 153.706 130.765 149.964 C 119.892 132.002, 69.278 54.097, 68.500 54.129 C 67.950 54.151, 61.425 58.183, 54 63.088 M 64.587 67.634 C 64.171 68.719, 69.459 77.881, 80.317 94.884 C 119.137 155.675, 117.379 153.078, 119.500 152.780 C 120.765 152.603, 121.479 151.765, 121.443 150.500 C 121.411 149.400, 109.543 129.938, 95.069 107.250 C 69.013 66.408, 66.374 62.978, 64.587 67.634 M 52.008 75.491 C 50.638 77.141, 48.559 73.662, 84.291 129.500 C 100.393 154.663, 104.540 160.500, 106.314 160.500 C 107.856 160.500, 108.480 159.911, 108.431 158.500 C 108.343 155.953, 55.935 74, 54.394 74 C 53.762 74, 52.688 74.671, 52.008 75.491 M 121.250 167.980 C 114.513 172.355, 109.019 176.287, 109.043 176.717 C 109.095 177.680, 122.577 187, 123.918 187 C 126.179 187, 138 178.666, 138 177.072 C 138 175.162, 136.166 164.449, 135.377 161.750 C 135.095 160.787, 134.558 160.006, 134.183 160.013 C 133.807 160.020, 127.987 163.605, 121.250 167.980 M 134.257 187.766 C 131.924 189.270, 130.011 190.802, 130.007 191.171 C 129.998 192.052, 141.283 200.050, 141.803 199.531 C 142.430 198.903, 139.898 184.998, 139.160 185.016 C 138.797 185.025, 136.591 186.262, 134.257 187.766" stroke="none" fill="#e4d4ac" fill-rule="evenodd"/></svg>