<svg xmlns="http://www.w3.org/2000/svg" width="504" height="194" viewBox="0 0 504 194" version="1.1"><path d="M 360.455 4.455 C 354.461 10.448, 358.545 20, 367.101 20 C 375.290 20, 378.861 11.554, 373.411 5.077 C 370.004 1.028, 364.161 0.748, 360.455 4.455 M 387.350 2.994 C 384.370 4.197, 382.476 10.148, 384.102 13.201 C 387.027 18.691, 392.712 19.608, 397.195 15.313 C 400.567 12.083, 400.825 8.318, 397.927 4.635 C 395.749 1.865, 391.704 1.238, 387.350 2.994 M 411.200 13.200 C 410.540 13.860, 410 15.570, 410 17 C 410 20.305, 411.695 22, 415 22 C 418.305 22, 420 20.305, 420 17 C 420 13.695, 418.305 12, 415 12 C 413.570 12, 411.860 12.540, 411.200 13.200 M 135.500 24.871 C 133.850 25.895, 131.401 27.927, 130.058 29.386 C 124.524 35.395, 112.612 40.842, 57.750 62.450 C 46.888 66.728, 38 70.425, 38 70.665 C 38 70.906, 39.498 71.728, 41.328 72.492 C 44.889 73.980, 46.071 73.776, 76 66.495 C 81.775 65.090, 94.150 62.323, 103.500 60.346 C 120.031 56.851, 120.769 56.782, 130.255 57.866 C 149.196 60.029, 154.936 62.188, 165.656 71.177 C 194.900 95.699, 195.202 96.002, 201.130 106.780 C 202.794 109.806, 206.523 111.850, 222 118.222 C 226.125 119.921, 229.722 121.500, 229.993 121.732 C 230.264 121.963, 223.064 129.337, 213.993 138.118 C 201.416 150.293, 197.025 153.971, 195.500 153.612 C 194.400 153.353, 190.125 151.928, 186 150.446 C 174.427 146.288, 166.429 146.619, 139.347 152.375 C 127.163 154.965, 115.824 157.477, 114.149 157.957 C 110.856 158.902, 109.759 158.178, 108.563 154.276 C 107.674 151.375, 102.527 147.750, 99.296 147.750 C 97.405 147.750, 94.990 149.681, 89.877 155.285 C 82.348 163.537, 77.360 166.525, 67.624 168.615 C 57.311 170.829, 55.998 170.544, 41.300 162.896 C 33.446 158.809, 26.342 155.766, 24.574 155.732 C 18.778 155.618, 2.360 157.159, 1.104 157.936 C -0.703 159.052, 8.897 167.182, 16.978 171.380 C 23.881 174.965, 38.715 180.055, 49.204 182.438 C 52.667 183.224, 62.535 184.633, 71.134 185.568 L 86.768 187.267 104.134 183.579 C 125.495 179.042, 124.257 179.234, 137 178.490 C 151.733 177.631, 171.609 179.359, 189.860 183.088 C 204.224 186.022, 208.040 185.708, 220.916 180.534 C 232.950 175.698, 239.985 171.670, 258.500 159.019 L 270.500 150.820 278.171 151.373 C 286.079 151.942, 300.738 155.157, 306.605 157.608 C 311.508 159.657, 314.591 159.318, 317.499 156.410 C 319.032 154.877, 320.716 154.061, 321.626 154.410 C 322.472 154.735, 327.904 155, 333.698 155 C 344.158 155, 344.228 155.016, 343.553 157.250 C 342.008 162.354, 342.146 162.500, 348.498 162.500 C 354.406 162.500, 354.526 162.443, 356.498 158.753 C 357.599 156.692, 358.985 155.004, 359.578 155.003 C 360.170 155.001, 363.424 156.125, 366.808 157.500 C 374.529 160.637, 378.114 160.637, 386.811 157.500 C 390.623 156.125, 394.363 155.035, 395.121 155.078 C 398.055 155.245, 416.612 170.778, 422.391 177.903 C 427.197 183.829, 429.584 185.846, 434.526 188.159 C 442.549 191.913, 451.061 193.714, 454.726 192.433 C 458.902 190.974, 459.007 186.245, 455.003 180.005 C 453.280 177.320, 451.562 174.983, 451.185 174.812 C 450.808 174.640, 449.239 172.812, 447.698 170.749 C 444.610 166.615, 440.367 164, 436.746 164 C 434.317 164, 431.384 161.276, 424.629 152.750 L 420.866 148 424.749 148 C 430.731 148, 440.022 146.029, 444.278 143.858 C 453.124 139.345, 457.738 129.806, 456.660 118.258 C 456.008 111.275, 457.001 108.010, 459.785 107.984 C 460.728 107.975, 465.598 108.948, 470.606 110.146 C 480.269 112.458, 483 112.239, 483 109.154 C 483 108.104, 483.727 106.642, 484.615 105.905 C 485.993 104.761, 486.475 104.868, 487.906 106.636 C 488.828 107.775, 490.613 109.258, 491.873 109.932 C 493.850 110.990, 494.700 110.803, 498.082 108.565 C 502.698 105.510, 502.978 103.536, 499.899 95.787 C 497.981 90.962, 497.894 89.801, 498.900 82.500 C 500.783 68.835, 500.560 67.261, 496.500 65.564 C 494.575 64.760, 493 63.479, 493 62.717 C 493 61.956, 489.610 57.683, 485.466 53.223 C 475.929 42.958, 470.255 40, 460.097 40 C 453.648 40, 452.776 40.258, 449.501 43.133 C 447.539 44.856, 445.797 46.094, 445.632 45.883 C 445.467 45.672, 442.530 41.371, 439.107 36.324 C 435.683 31.277, 432.239 26.614, 431.454 25.962 C 429.898 24.671, 427 25.319, 427 26.958 C 427 27.519, 430.375 32.938, 434.500 39 C 438.625 45.062, 441.988 50.580, 441.973 51.261 C 441.958 51.942, 440.719 53.979, 439.218 55.788 L 436.490 59.075 433.051 56.538 C 429.140 53.652, 427.328 53.438, 424.559 55.532 C 421.335 57.970, 419.135 57.241, 413.429 51.845 C 408.409 47.097, 407.777 46.780, 405.442 47.845 C 401.523 49.630, 400.501 49.275, 398.701 45.500 C 396.744 41.395, 397.857 41.507, 374.483 43.066 C 362.652 43.855, 355.824 43.829, 348.198 42.964 C 338.618 41.877, 337.497 41.940, 332.198 43.859 C 327.185 45.675, 323.617 45.970, 302.500 46.319 C 276.474 46.748, 272.987 47.342, 267.751 52.233 L 264.721 55.063 265.237 72.531 C 265.695 88.038, 265.575 90, 264.166 90 C 262.905 90, 247.623 86.955, 226.500 82.495 C 225.400 82.263, 222.390 79.154, 219.812 75.588 C 217.233 72.021, 213.243 67.916, 210.945 66.465 C 206.540 63.685, 204.233 62.511, 175.500 48.440 C 158.143 39.940, 157.210 39.328, 149.387 31.313 C 144.924 26.741, 140.649 23.002, 139.887 23.004 C 139.124 23.006, 137.150 23.846, 135.500 24.871 M 409.170 28.170 C 409.390 29.723, 410.167 30.500, 411.500 30.500 C 414.478 30.500, 414.181 26.596, 411.170 26.170 C 409.231 25.895, 408.895 26.231, 409.170 28.170 M 421.500 39 C 420.771 40.180, 421.717 42, 423.059 42 C 423.577 42, 424 41.100, 424 40 C 424 37.891, 422.545 37.309, 421.500 39 M 445.784 115.195 C 443.547 115.789, 440.761 117.676, 438.784 119.936 C 434.472 124.864, 420 144.577, 420 145.522 C 420 146.655, 433.909 145.099, 439.272 143.367 C 441.896 142.519, 445.540 140.402, 447.370 138.662 C 452.663 133.632, 456.491 121.050, 454.393 115.582 C 453.719 113.824, 451.341 113.717, 445.784 115.195" stroke="none" fill="#e4d4ac" fill-rule="evenodd"/></svg>