<svg xmlns="http://www.w3.org/2000/svg" width="460" height="407" viewBox="0 0 460 407" version="1.1"><path d="M 362.239 3.017 C 356.607 3.838, 352 6.233, 352 8.339 C 352 10.049, 342.345 14, 338.165 14 C 333.452 14, 331.702 15.227, 326.383 22.257 C 320.044 30.636, 317.010 33.565, 313.869 34.334 C 312.423 34.688, 311.020 35.815, 310.753 36.837 C 310.468 37.925, 309.015 38.947, 307.250 39.300 C 305.591 39.632, 302.043 41.794, 299.367 44.105 C 295.139 47.755, 294.276 49.173, 292.792 54.903 C 289.772 66.565, 289.397 67.482, 287.187 68.589 C 283.977 70.197, 280.880 73.213, 279.955 75.632 C 279.418 77.035, 278.003 77.934, 275.819 78.260 C 273.994 78.532, 270.137 79.367, 267.250 80.114 C 262.541 81.333, 262 81.753, 262 84.185 C 262 85.676, 260.824 90.632, 259.386 95.198 C 254.599 110.404, 252.384 112.982, 244.061 113.035 C 241.003 113.055, 237.375 113.714, 236 114.500 C 231.768 116.919, 225.943 116.087, 217.802 111.901 C 215.768 110.856, 212.687 110, 210.955 110 C 208.693 110, 206.498 108.847, 203.153 105.900 C 200.594 103.644, 197.310 101.182, 195.855 100.428 C 192.017 98.439, 185.397 97.549, 184.556 98.909 C 184.174 99.527, 183.412 99.754, 182.861 99.414 C 181.507 98.578, 176.058 104.823, 175.394 107.971 C 175.101 109.362, 174.443 111.534, 173.931 112.797 C 173.419 114.060, 173 116.432, 173 118.067 C 173 121.633, 168.591 129, 166.456 129 C 165.621 129, 164.678 129.675, 164.362 130.500 C 164.045 131.325, 162.967 132, 161.966 132 C 160.811 132, 159.010 133.987, 157.035 137.440 C 154.406 142.034, 153.425 142.927, 150.718 143.190 C 148.366 143.417, 147.163 144.236, 146.195 146.266 C 144.932 148.913, 144.581 149.026, 138.043 148.892 C 134.286 148.814, 130.687 149.076, 130.045 149.472 C 129.404 149.868, 127.536 149.636, 125.895 148.956 C 123.593 148.003, 122.323 147.988, 120.343 148.890 C 116.580 150.604, 115 148.820, 115 142.856 C 115 139.186, 115.690 136.914, 117.750 133.800 C 121.216 128.560, 121.380 122.003, 118.180 116.580 C 116.981 114.548, 116 112.086, 116 111.110 C 116 108.864, 108.420 94.239, 105.715 91.267 C 104.598 90.039, 102.742 88.750, 101.592 88.402 C 100.441 88.055, 98.487 86.843, 97.250 85.711 C 96.012 84.578, 94.962 84.067, 94.915 84.576 C 94.668 87.248, 96.911 183.881, 97.425 192.750 C 97.734 198.066, 97.516 200, 96.610 200 C 93.716 200, 85.333 204.973, 84.261 207.327 C 83.617 208.739, 82.099 209.990, 80.807 210.173 C 79.136 210.410, 78.413 211.258, 78.184 213.248 C 77.771 216.837, 74.037 217.909, 70.354 215.496 C 68.266 214.128, 66.668 213.926, 62.611 214.517 C 54.464 215.704, 44.792 215.524, 41 214.113 C 33.523 211.332, 31.421 210.732, 29.250 210.760 C 27.551 210.781, 27 210.217, 27 208.453 C 27 207.169, 26.565 205.849, 26.033 205.520 C 25.501 205.191, 25.332 203.591, 25.657 201.964 C 26.334 198.582, 24.697 196, 21.878 196 C 20.845 196, 20 195.357, 20 194.571 C 20 191.734, 17.186 190.037, 14.236 191.094 C 11.543 192.059, 7.684 198.373, 8.062 201.196 C 8.436 203.987, 7.928 205, 6.155 205 C 4.176 205, 1 207.940, 1 209.772 C 1 211.140, 4.542 217.356, 7.855 221.801 C 10.584 225.463, 17 239.625, 17.001 241.990 C 17.003 248.417, 35.097 284.740, 44.370 296.934 C 51.632 306.483, 53.241 310.196, 55.092 321.671 C 57.119 334.236, 54.423 342.076, 48.580 340.610 C 46.681 340.133, 45.814 340.479, 44.973 342.050 C 43.646 344.531, 44.644 350, 46.424 350 C 47.121 350, 48.547 351.005, 49.595 352.233 C 51.199 354.113, 51.220 354.248, 49.726 353.090 C 46.766 350.796, 46.405 352.893, 49.298 355.576 C 50.784 356.954, 52 358.722, 52 359.505 C 52 360.289, 52.900 361.411, 54 362 C 55.100 362.589, 56 363.669, 56 364.400 C 56 365.132, 56.904 366.879, 58.009 368.284 C 60.878 371.932, 61.610 376.532, 59.636 378.507 C 57.714 380.429, 57.930 386.469, 60.036 389.750 C 62.108 392.976, 62.896 392.537, 62.685 388.275 C 62.508 384.708, 62.658 384.523, 66.213 383.938 C 70.754 383.190, 72 384.287, 72 389.033 C 72 393.736, 72.491 394.111, 76.473 392.447 C 79.540 391.165, 79.821 391.208, 80.298 393.032 C 80.592 394.156, 81.664 395, 82.799 395 C 85.002 395, 86.248 397.189, 85.362 399.500 C 84.970 400.521, 85.416 401, 86.758 401 C 87.843 401, 89.803 401.832, 91.115 402.849 C 94.251 405.279, 105.578 406.554, 106.711 404.603 C 107.145 403.856, 109.948 401.165, 112.940 398.622 C 117.337 394.887, 119.111 394, 122.190 394 C 124.364 394, 126 393.513, 126 392.866 C 126 392.080, 128.158 391.886, 133.023 392.234 C 136.885 392.510, 140.286 392.346, 140.582 391.868 C 140.877 391.391, 143.551 391, 146.525 391 C 152.121 391, 151.924 391.110, 160.203 383.346 C 161.875 381.778, 166.848 380.348, 174.219 379.316 C 176.882 378.944, 178.410 379.267, 179.598 380.455 C 180.595 381.452, 181.906 381.835, 182.879 381.413 C 185.008 380.491, 186.808 380.489, 190.750 381.404 C 193.317 382, 194 381.841, 194 380.647 C 194 379.815, 194.952 378.833, 196.116 378.463 C 199.200 377.484, 213.491 379.892, 220.869 382.634 C 230.427 386.185, 232.410 385.780, 235.502 379.643 C 236.666 377.332, 238.078 377.221, 249.250 378.559 L 255 379.248 255.015 376.374 C 255.024 374.793, 255.393 372.929, 255.836 372.232 C 257.247 370.008, 262.286 369.267, 269.836 370.173 C 276.244 370.943, 277.700 370.802, 281.336 369.062 C 283.626 367.967, 287.075 366.448, 289 365.687 C 290.925 364.926, 295.425 362.060, 299 359.319 C 302.575 356.577, 307.361 353.161, 309.636 351.726 C 311.911 350.292, 315.961 346.907, 318.636 344.205 C 321.311 341.502, 324.691 338.663, 326.147 337.896 C 329.765 335.988, 343.202 322.876, 350.500 314.132 C 353.800 310.178, 357.346 306.168, 358.381 305.221 C 362.983 301.009, 368.981 296.366, 371.789 294.841 C 375.822 292.652, 395.097 263.327, 404.500 245.077 C 410.098 234.211, 423.148 219.566, 428.226 218.450 C 429.957 218.070, 431.450 216.995, 431.729 215.927 C 431.997 214.904, 432.966 213.828, 433.883 213.537 C 436.114 212.829, 443 206.077, 443 204.597 C 443 203.951, 443.851 201.754, 444.891 199.714 C 446.803 195.963, 447.872 192.559, 448.569 188 C 449.341 182.949, 451.889 174.296, 454.902 166.500 C 456.602 162.100, 457.994 157.262, 457.996 155.750 L 458 153 450.250 152.956 C 445.988 152.932, 440.553 152.537, 438.173 152.077 C 433.089 151.094, 433.132 151.032, 432.165 160.665 C 431.413 168.152, 432.051 167.703, 424 166.399 C 418.482 165.505, 410.398 162.059, 408.229 159.677 C 407.138 158.479, 405.719 155.852, 405.075 153.838 C 404.430 151.825, 403.250 149.926, 402.452 149.620 C 401.433 149.229, 401 147.466, 401 143.706 C 401 139.299, 401.439 137.936, 403.475 136.024 C 404.836 134.745, 406.712 131.629, 407.644 129.099 C 409.541 123.953, 411.208 121.705, 415.284 118.800 C 417.946 116.902, 418.188 116.891, 420.784 118.537 C 422.278 119.484, 424.636 121.313, 426.026 122.601 C 427.415 123.890, 429.665 125.069, 431.026 125.222 C 433.028 125.447, 433.541 125.023, 433.714 123 C 433.832 121.625, 434.355 117.125, 434.877 113 C 435.398 108.875, 436.130 98.525, 436.503 90 C 437.073 76.988, 436.926 73.903, 435.591 70.782 C 434.716 68.737, 434 65.530, 434 63.655 C 434 61.779, 433.350 59.705, 432.555 59.045 C 431.760 58.386, 430.376 55.636, 429.478 52.935 C 428.581 50.234, 427.431 47.767, 426.924 47.453 C 426.416 47.139, 426 44.872, 426 42.414 C 426 39.957, 425.138 34.471, 424.084 30.224 C 423.030 25.976, 421.555 19.833, 420.806 16.573 L 419.444 10.646 413.472 9.287 C 409.955 8.487, 404.243 8.102, 399.576 8.351 C 391.518 8.780, 385.751 7.484, 378.500 3.613 C 375.329 1.921, 370.873 1.758, 362.239 3.017 M 443.441 188.481 C 441.843 189.700, 441.747 190.124, 442.895 190.880 C 443.852 191.509, 444.092 192.788, 443.660 194.948 C 443.314 196.682, 443.421 197.858, 443.900 197.562 C 444.378 197.266, 445.004 195.781, 445.291 194.262 C 445.578 192.743, 446.133 190.488, 446.523 189.250 C 447.344 186.649, 446.212 186.367, 443.441 188.481 M 335.099 206.114 C 333.293 206.483, 331.316 207.284, 330.707 207.893 C 330.098 208.502, 328.742 209, 327.694 209 C 326.646 209, 324.452 210.125, 322.817 211.500 C 321.183 212.875, 318.643 214.286, 317.173 214.635 C 314.238 215.331, 311 217.763, 311 219.271 C 311 219.799, 308.906 223.381, 306.347 227.231 C 303.194 231.974, 300.636 234.672, 298.415 235.600 C 294.785 237.117, 293.473 238.556, 294.911 239.445 C 295.430 239.765, 296.393 241.709, 297.051 243.764 C 297.709 245.819, 299.317 248.932, 300.624 250.683 C 301.931 252.434, 303 254.520, 303 255.318 C 303 256.117, 305.074 259.289, 307.608 262.368 C 311.735 267.381, 316.007 269.962, 320.230 269.994 C 321.097 270.001, 325.458 262.009, 325.499 260.340 C 325.579 257.015, 334.117 252.063, 337.519 253.369 C 338.309 253.672, 341.604 252.606, 344.841 251 C 350.400 248.242, 350.758 247.845, 351.297 243.825 C 351.611 241.485, 352.507 239.103, 353.288 238.531 C 354.070 237.960, 355.030 236.482, 355.422 235.246 C 355.814 234.011, 356.539 233, 357.032 233 C 359.088 233, 359.890 229.341, 358.444 226.555 C 357.650 225.024, 357 223.148, 357 222.386 C 357 221.624, 356.193 221, 355.206 221 C 354.219 221, 350.031 217.499, 345.898 213.221 C 338.810 205.884, 338.197 205.480, 335.099 206.114" stroke="none" fill="#e4d4ac" fill-rule="evenodd"/></svg>